<?xml version="1.0" standalone="no"?>
<!DOCTYPE svg PUBLIC "-//W3C//DTD SVG 20010904//EN"
 "http://www.w3.org/TR/2001/REC-SVG-20010904/DTD/svg10.dtd">
<svg version="1.0" xmlns="http://www.w3.org/2000/svg"
 width="700.000000pt" height="700.000000pt" viewBox="0 0 700.000000 700.000000"
 preserveAspectRatio="xMidYMid meet">
<metadata>
Created by potrace 1.14, written by Peter Selinger 2001-2017
</metadata>
<g transform="translate(0.000000,700.000000) scale(0.100000,-0.100000)"
fill="#000000" stroke="none">
<path d="M0 6250 l0 -750 3500 0 3500 0 0 750 0 750 -3500 0 -3500 0 0 -750z"/>
<path d="M0 3490 l0 -1030 3500 0 3500 0 0 1030 0 1030 -3500 0 -3500 0 0
-1030z"/>
<path d="M0 770 l0 -770 3500 0 3500 0 0 770 0 770 -3500 0 -3500 0 0 -770z"/>
</g>
</svg>
