<svg  viewBox="0 0 221 135" fill="none" xmlns="http://www.w3.org/2000/svg">
    <g id="svgBuilding1">
        <path d="M66 78.6999V87.0999C73.6 86.2999 81.4 85.4999 89.6 84.5999V75.7999C81.4 76.7999 73.5 77.7999 66 78.6999Z" stroke="#5FACBD" stroke-width="1.873" stroke-miterlimit="10" stroke-linecap="round" stroke-linejoin="round"/>
<path d="M66 65.2999V73.7C73.6 72.7 81.4 71.6 89.6 70.5V61.7C81.4 62.9 73.5 64.0999 66 65.2999Z" stroke="#5FACBD" stroke-width="1.873" stroke-miterlimit="10" stroke-linecap="round" stroke-linejoin="round"/>
<path d="M66 92.1V100.5C73.6 99.9 81.4 99.4 89.6 98.8V90C81.4 90.7 73.5 91.4 66 92.1Z" stroke="#5FACBD" stroke-width="1.873" stroke-miterlimit="10" stroke-linecap="round" stroke-linejoin="round"/>
<path d="M128.3 71V80.6C138.2 79.6 148.6 78.5 159.5 77.3V67.1C148.6 68.5 138.2 69.8 128.3 71Z" stroke="#5FACBD" stroke-width="1.873" stroke-miterlimit="10" stroke-linecap="round" stroke-linejoin="round"/>
<path d="M128.3 55.5999V65.1999C138.2 63.8999 148.6 62.3999 159.5 60.9999V50.7999C148.6 52.4999 138.2 54.0999 128.3 55.5999Z" stroke="#5FACBD" stroke-width="1.873" stroke-miterlimit="10" stroke-linecap="round" stroke-linejoin="round"/>
<path d="M128.3 86.3V95.9C138.2 95.2 148.6 94.4 159.5 93.6V83.5C148.6 84.5 138.2 85.4 128.3 86.3Z" stroke="#5FACBD" stroke-width="1.873" stroke-miterlimit="10" stroke-linecap="round" stroke-linejoin="round"/>
<path d="M128.3 101.7V111.3C138.2 110.9 148.6 110.5 159.5 110V99.7999C148.6 100.5 138.2 101.1 128.3 101.7Z" stroke="#5FACBD" stroke-width="1.873" stroke-miterlimit="10" stroke-linecap="round" stroke-linejoin="round"/>
<path d="M95 75.1V84C103.6 83.1 112.6 82.2 122 81.2V71.7C112.6 72.9 103.6 74 95 75.1Z" stroke="#5FACBD" stroke-width="1.873" stroke-miterlimit="10" stroke-linecap="round" stroke-linejoin="round"/>
<path d="M95 60.8V69.7C103.6 68.5 112.6 67.3 122 66V56.5C112.6 58.1 103.7 59.5 95 60.8Z" stroke="#5FACBD" stroke-width="1.873" stroke-miterlimit="10" stroke-linecap="round" stroke-linejoin="round"/>
<path d="M95 89.3999C95 92.3999 95 95.3999 95 98.2999C103.6 97.6999 112.6 96.9999 122 96.2999V86.7999C112.6 87.7999 103.6 88.5999 95 89.3999Z" stroke="#5FACBD" stroke-width="1.873" stroke-miterlimit="10" stroke-linecap="round" stroke-linejoin="round"/>
<path d="M95 103.7V112.6C103.6 112.2 112.6 111.9 122 111.5V102C112.6 102.7 103.6 103.2 95 103.7Z" stroke="#5FACBD" stroke-width="1.873" stroke-miterlimit="10" stroke-linecap="round" stroke-linejoin="round"/>
<path d="M40.3999 81.8999V89.7999C47.0999 89.0999 53.9999 88.3999 61.0999 87.5999V79.2999C53.9999 80.1999 47.0999 81.0999 40.3999 81.8999Z" stroke="#5FACBD" stroke-width="1.873" stroke-miterlimit="10" stroke-linecap="round" stroke-linejoin="round"/>
<path d="M40.3999 69.3V77.2C47.0999 76.3 53.9999 75.4 61.0999 74.4V66.1C53.9999 67.2 47.0999 68.2 40.3999 69.3Z" stroke="#5FACBD" stroke-width="1.873" stroke-miterlimit="10" stroke-linecap="round" stroke-linejoin="round"/>
<path d="M40.3999 94.5V102.4C47.0999 101.9 53.9999 101.4 61.0999 100.9V92.6C53.9999 93.2 47.0999 93.9 40.3999 94.5Z" stroke="#5FACBD" stroke-width="1.873" stroke-miterlimit="10" stroke-linecap="round" stroke-linejoin="round"/>
<path d="M40.3999 107.1V115C47.0999 114.7 53.9999 114.4 61.0999 114.1V105.8C53.9999 106.3 47.0999 106.7 40.3999 107.1Z" stroke="#5FACBD" stroke-width="1.873" stroke-miterlimit="10" stroke-linecap="round" stroke-linejoin="round"/>
<path d="M17.7 84.6999C17.7 87.1999 17.7 89.6999 17.7 92.0999C23.7 91.4999 29.7999 90.7999 36.0999 90.1999V82.3999C29.7999 83.1999 23.7 83.9999 17.7 84.6999Z" stroke="#5FACBD" stroke-width="1.873" stroke-miterlimit="10" stroke-linecap="round" stroke-linejoin="round"/>
<path d="M17.7 72.7999V80.1999C23.6 79.3999 29.7999 78.5999 36.0999 77.6999V69.8999C29.7999 70.8999 23.7 71.8999 17.7 72.7999Z" stroke="#5FACBD" stroke-width="1.873" stroke-miterlimit="10" stroke-linecap="round" stroke-linejoin="round"/>
<path d="M17.7 96.5999V104C23.6 103.6 29.7999 103.1 36.0999 102.7V94.8999C29.7999 95.4999 23.7 95.9999 17.7 96.5999Z" stroke="#5FACBD" stroke-width="1.873" stroke-miterlimit="10" stroke-linecap="round" stroke-linejoin="round"/>
<path d="M17.7 108.5V115.9C23.6 115.7 29.7999 115.4 36.0999 115.1V107.3C29.7999 107.7 23.7 108.1 17.7 108.5Z" stroke="#5FACBD" stroke-width="1.873" stroke-miterlimit="10" stroke-linecap="round" stroke-linejoin="round"/>
<path d="M66.3 122.9H89.6V104.1C81.6 104.6 73.8 105.1 66.3 105.5V122.9Z" stroke="#5FACBD" stroke-width="1.873" stroke-miterlimit="10" stroke-linecap="round" stroke-linejoin="round"/>
<path d="M178.3 122.9V43.6L212.5 51.2V122.9H220.3V134H0.899902V122.9H9.9999V96.8V68.5C9.3999 68.6 8.1999 68.8 7.5999 68.9V62.2L178.3 30.1L214.5 38.9V47.9L178.3 39.9C177.1 40.1 175.9 40.3 174.8 40.5V122.9H178.3Z" stroke="#5FACBD" stroke-width="1.873" stroke-miterlimit="10" stroke-linecap="round" stroke-linejoin="round"/>
    </g></svg>
