<svg  style="display:none;" viewBox="0 0 221 135" fill="none" xmlns="http://www.w3.org/2000/svg">
    <g id="svgBuilding2">
<path d="M54.3999 64.1C57.9999 63.4 61.6999 62.6 65.4999 61.9C65.4999 73.7 65.4999 85.5 65.4999 97.3C61.6999 97.7 57.9999 98.1 54.3999 98.4V64.1Z" stroke="#5FACBD" stroke-width="1.873" stroke-miterlimit="10" stroke-linecap="round" stroke-linejoin="round"/>
<path d="M71.7 60.6C75.7 59.8 79.8 59 84 58.1V95.3C79.8 95.7 75.7 96.1 71.7 96.6V60.6Z" stroke="#5FACBD" stroke-width="1.873" stroke-miterlimit="10" stroke-linecap="round" stroke-linejoin="round"/>
<path d="M90.8 56.7C95.2 55.8 99.8 54.9 104.4 53.9V93.2C99.7 93.7 95.2 94.1 90.8 94.6V56.7Z" stroke="#5FACBD" stroke-width="1.873" stroke-miterlimit="10" stroke-linecap="round" stroke-linejoin="round"/>
<path d="M31.7 81.1C34.1 80.7 36.5999 80.3 39.0999 79.9V93.1C36.5999 93.4 34.1 93.7 31.7 94V81.1Z" stroke="#5FACBD" stroke-width="1.873" stroke-miterlimit="10" stroke-linecap="round" stroke-linejoin="round"/>
<path d="M31.7 101.6C34.1 101.4 36.5999 101.1 39.0999 100.9V114.1C36.5999 114.2 34.1 114.4 31.7 114.5C31.7 110.2 31.7 105.9 31.7 101.6Z" stroke="#5FACBD" stroke-width="1.873" stroke-miterlimit="10" stroke-linecap="round" stroke-linejoin="round"/>
<path d="M21.6001 82.8C23.8001 82.4 26.2001 82.1 28.5001 81.7V94.4C26.2001 94.7 23.9001 95 21.6001 95.2V82.8Z" stroke="#5FACBD" stroke-width="1.873" stroke-miterlimit="10" stroke-linecap="round" stroke-linejoin="round"/>
<path d="M21.6001 102.6C23.8001 102.4 26.1001 102.1 28.5001 101.9V114.6C26.2001 114.7 23.9001 114.9 21.6001 115V102.6Z" stroke="#5FACBD" stroke-width="1.873" stroke-miterlimit="10" stroke-linecap="round" stroke-linejoin="round"/>
<path d="M145.2 62.6C149.6 61.9 154.2 61.1 158.9 60.4V78.4C154.2 79 149.7 79.5 145.2 80.1V62.6Z" stroke="#5FACBD" stroke-width="1.873" stroke-miterlimit="10" stroke-linecap="round" stroke-linejoin="round"/>
<path d="M145.2 90.4C149.6 90 154.2 89.5 158.9 89C158.9 95 158.9 101 158.9 107C154.2 107.3 149.7 107.5 145.2 107.8V90.4Z" stroke="#5FACBD" stroke-width="1.873" stroke-miterlimit="10" stroke-linecap="round" stroke-linejoin="round"/>
<path d="M126.7 65.6C130.8 64.9 134.9 64.3 139.2 63.6V80.8C134.9 81.3 130.8 81.8 126.7 82.3V65.6Z" stroke="#5FACBD" stroke-width="1.873" stroke-miterlimit="10" stroke-linecap="round" stroke-linejoin="round"/>
<path d="M90.8 123.3V101C95.2 100.6 99.8 100.2 104.4 99.8V123.2L90.8 123.3Z" stroke="#5FACBD" stroke-width="1.873" stroke-miterlimit="10" stroke-linecap="round" stroke-linejoin="round"/>
<path d="M71.7 123.3V102.6C75.7 102.3 79.8 101.9 84 101.6V123.4H71.7V123.3Z" stroke="#5FACBD" stroke-width="1.873" stroke-miterlimit="10" stroke-linecap="round" stroke-linejoin="round"/>
<path d="M54.3999 123.3V104C57.9999 103.7 61.6999 103.4 65.4999 103.1V123.3H54.3999Z" stroke="#5FACBD" stroke-width="1.873" stroke-miterlimit="10" stroke-linecap="round" stroke-linejoin="round"/>
<path d="M152 47.5V45.6L116.3 36.9C102.5 40.2 89.6999 43.3 77.5999 46.1C66.2999 48.8 55.6999 51.3 45.6999 53.7V59.3C46.1999 59.2 46.6999 59.1 47.1999 59V123.3H44.6999V69.7C34.2999 71.7 24.4999 73.6 15.2999 75.3V80.3C15.6999 80.2 16.0999 80.2 16.4999 80.1V102.2V123.2H4.8999V134.1H216.6V123.2H205.9V63L172.3 55.5V123.3H169.6V53.4L172.5 52.9L208.2 60.8V53.9L172.5 45.2C162.1 47.2 141.2 51.2 141.2 51.2L116.7 45.8V123.3H114.1V44.2" stroke="#5FACBD" stroke-width="1.873" stroke-miterlimit="10" stroke-linecap="round" stroke-linejoin="round"/>
<path d="M101.5 3.99998C107 2.19998 114 1.09998 120.9 3.29998C126.3 4.99998 130.5 7.19998 136.8 3.39998V25C130.6 29.1 124.6 30.1 118.1 26.6C112.5 23.6 106.1 23.7 101.5 27.3V3.99998Z" stroke="#5FACBD" stroke-width="1.873" stroke-miterlimit="10" stroke-linecap="round" stroke-linejoin="round"/>
<path d="M92.2 39.6V4H98.6V38.1L92.2 39.6Z" stroke="#5FACBD" stroke-width="1.873" stroke-miterlimit="10" stroke-linecap="round" stroke-linejoin="round"/>
<path d="M126.7 92.2C130.8 91.8 134.9 91.4 139.2 91V108.2C134.9 108.5 130.8 108.7 126.7 108.9V92.2Z" stroke="#5FACBD" stroke-width="1.873" stroke-miterlimit="10" stroke-linecap="round" stroke-linejoin="round"/>
    </g>
</svg>
