<svg  style="display:none;" viewBox="0 0 221 135" fill="none" xmlns="http://www.w3.org/2000/svg">
    <g id="svgBuilding3">
    <path d="M107.1 48.9V43.7L118.9 46.6M145.1 41.4L107.1 32.2L49.9999 46.2V53.6C50.8999 53.4 51.7999 53.2 52.5999 53V62L16.2999 69.2V75.7999L18.2999 75.4V121.7H5.8999V134.3H214.5V121.7H202.9V61.8L164.4 53.3V121.7H160.1V50.2C161.5 49.9 162.9 49.7 164.4 49.4L205.8 58.6V49.7L164.5 39.7L103.6 51.8V41.5L107.1 40.7L126.7 45M24.8999 78.1C27.8999 77.6 30.8999 77.1 33.9999 76.6V92.2C30.8999 92.6 27.8999 92.8999 24.8999 93.2999V78.1ZM38.7999 75.7999C41.9999 75.2999 45.2999 74.7 48.6999 74.1V90.4C45.2999 90.8 41.9999 91.2 38.7999 91.6V75.7999ZM53.9999 73.2999C57.4999 72.6999 61.0999 72.1 64.7999 71.5V88.5C61.0999 88.9 57.4999 89.3999 53.9999 89.7999V73.2999ZM70.4999 70.5C74.3999 69.9 78.2999 69.2 82.3999 68.5V86.4C78.3999 86.9 74.3999 87.3999 70.4999 87.7999V70.5ZM88.6999 67.5C92.9999 66.8 97.2999 66.0999 101.8 65.2999V84C97.2999 84.5 92.9999 85.1 88.6999 85.6V67.5ZM108.8 64.1C113.5 63.3 118.3 62.5 123.3 61.7V81.5C118.3 82.1 113.5 82.7 108.8 83.2V64.1ZM131 60.4C136.3 59.5 141.6 58.6 147.2 57.7V78.6C141.7 79.3 136.3 79.9 131 80.5V60.4ZM24.8999 100.1C27.8999 99.8 30.8999 99.5 33.9999 99.2V114.8C30.8999 115 27.8999 115.1 24.8999 115.3V100.1ZM38.7999 98.7C41.9999 98.4 45.2999 98.1 48.6999 97.7V114C45.2999 114.2 41.9999 114.4 38.7999 114.5V98.7ZM108.8 91.7999C113.5 91.2999 118.3 90.9 123.3 90.4C123.3 97 123.3 103.6 123.3 110.1C118.3 110.4 113.5 110.6 108.8 110.9V91.7999ZM131 89.6C136.3 89.1 141.6 88.5 147.2 88V108.9C141.7 109.2 136.3 109.5 131 109.8V89.6ZM78.5999 121.7V98.2C84.0999 97.7 89.6999 97.2 95.4999 96.7V121.7H78.5999ZM58.9999 121.7V100C63.8999 99.6 68.9999 99.1 74.1999 98.6V121.7H58.9999Z" stroke="#5FACBD" stroke-width="1.873" stroke-miterlimit="10" stroke-linecap="round" stroke-linejoin="round"/>
    </g></svg>
