<?xml version="1.0" encoding="utf-8"?>
<!-- Generator: Adobe Illustrator 28.0.0, SVG Export Plug-In . SVG Version: 6.00 Build 0)  -->
<svg version="1.1" id="Ebene_1" xmlns="http://www.w3.org/2000/svg" x="0px" y="0px"
	 viewBox="0 0 221.1 105.7" style="enable-background:new 0 0 221.1 105.7;" xml:space="preserve">
<style type="text/css">
	.st0{fill:#FFFFFF;}
	.st1{fill:none;stroke:#5FACBD;stroke-width:1.873;stroke-linecap:round;stroke-linejoin:round;stroke-miterlimit:10;}
</style>
<path class="st1" d="M66,49.5v8.4c7.6-0.8,15.4-1.6,23.6-2.5v-8.8C81.4,47.6,73.5,48.6,66,49.5z"/>
<path class="st1" d="M66,36.1v8.4c7.6-1,15.4-2.1,23.6-3.2v-8.8C81.4,33.7,73.5,34.9,66,36.1z"/>
<path class="st1" d="M66,62.9v8.4c7.6-0.6,15.4-1.1,23.6-1.7v-8.8C81.4,61.5,73.5,62.2,66,62.9z"/>
<path class="st1" d="M128.3,41.8v9.6c9.9-1,20.3-2.1,31.2-3.3V37.9C148.6,39.3,138.2,40.6,128.3,41.8z"/>
<path class="st1" d="M128.3,26.4V36c9.9-1.3,20.3-2.8,31.2-4.2V21.6C148.6,23.3,138.2,24.9,128.3,26.4z"/>
<path class="st1" d="M128.3,57.1v9.6c9.9-0.7,20.3-1.5,31.2-2.3V54.3C148.6,55.3,138.2,56.2,128.3,57.1z"/>
<path class="st1" d="M128.3,72.5v9.6c9.9-0.4,20.3-0.8,31.2-1.3V70.6C148.6,71.3,138.2,71.9,128.3,72.5z"/>
<path class="st1" d="M95,45.9v8.9c8.6-0.9,17.6-1.8,27-2.8v-9.5C112.6,43.7,103.6,44.8,95,45.9z"/>
<path class="st1" d="M95,31.6v8.9c8.6-1.2,17.6-2.4,27-3.7v-9.5C112.6,28.9,103.7,30.3,95,31.6z"/>
<path class="st1" d="M95,60.2c0,3,0,6,0,8.9c8.6-0.6,17.6-1.3,27-2v-9.5C112.6,58.6,103.6,59.4,95,60.2z"/>
<path class="st1" d="M95,74.5v8.9c8.6-0.4,17.6-0.7,27-1.1v-9.5C112.6,73.5,103.6,74,95,74.5z"/>
<path class="st1" d="M40.4,52.7v7.9c6.7-0.7,13.6-1.4,20.7-2.2v-8.3C54,51,47.1,51.9,40.4,52.7z"/>
<path class="st1" d="M40.4,40.1v7.9c6.7-0.9,13.6-1.8,20.7-2.8v-8.3C54,38,47.1,39,40.4,40.1z"/>
<path class="st1" d="M40.4,65.3v7.9c6.7-0.5,13.6-1,20.7-1.5v-8.3C54,64,47.1,64.7,40.4,65.3z"/>
<path class="st1" d="M40.4,77.9v7.9c6.7-0.3,13.6-0.6,20.7-0.9v-8.3C54,77.1,47.1,77.5,40.4,77.9z"/>
<path class="st1" d="M17.7,55.5c0,2.5,0,5,0,7.4c6-0.6,12.1-1.3,18.4-1.9v-7.8C29.8,54,23.7,54.8,17.7,55.5z"/>
<path class="st1" d="M17.7,43.6V51c5.9-0.8,12.1-1.6,18.4-2.5v-7.8C29.8,41.7,23.7,42.7,17.7,43.6z"/>
<path class="st1" d="M17.7,67.4v7.4c5.9-0.4,12.1-0.9,18.4-1.3v-7.8C29.8,66.3,23.7,66.8,17.7,67.4z"/>
<path class="st1" d="M17.7,79.3v7.4c5.9-0.2,12.1-0.5,18.4-0.8v-7.8C29.8,78.5,23.7,78.9,17.7,79.3z"/>
<path class="st1" d="M66.3,93.7h23.3V74.9c-8,0.5-15.8,1-23.3,1.4V93.7z"/>
<path class="st1" d="M178.3,93.7V14.4l34.2,7.6v71.7h7.8v11.1H0.9V93.7H10V67.6V39.3c-0.6,0.1-1.8,0.3-2.4,0.4v-6.7L178.3,0.9
	l36.2,8.8v9l-36.2-8c-1.2,0.2-2.4,0.4-3.5,0.6v82.4H178.3z"/>
</svg>
