<?xml version="1.0" encoding="utf-8"?>
<!-- Generator: Adobe Illustrator 28.0.0, SVG Export Plug-In . SVG Version: 6.00 Build 0)  -->
<svg version="1.1" id="Ebene_1" xmlns="http://www.w3.org/2000/svg" x="0px" y="0px"
     viewBox="0 0 213.5 135.2" style="enable-background:new 0 0 213.5 135.2;" xml:space="preserve">
<style type="text/css">
	.st0{fill:#FFFFFF;}
	.st1{fill:none;stroke:#5FACBD;stroke-width:1.873;stroke-linecap:round;stroke-linejoin:round;stroke-miterlimit:10;}
</style>
<path class="st1" d="M50.4,64.1c3.6-0.7,7.3-1.5,11.1-2.2c0,11.8,0,23.6,0,35.4c-3.8,0.4-7.5,0.8-11.1,1.1V64.1z"/>
<path class="st1" d="M67.7,60.6c4-0.8,8.1-1.6,12.3-2.5v37.2c-4.2,0.4-8.3,0.8-12.3,1.3V60.6z"/>
<path class="st1" d="M86.8,56.7c4.4-0.9,9-1.8,13.6-2.8v39.3c-4.7,0.5-9.2,0.9-13.6,1.4V56.7z"/>
<path class="st1" d="M27.7,81.1c2.4-0.4,4.9-0.8,7.4-1.2v13.2c-2.5,0.3-5,0.6-7.4,0.9V81.1z"/>
<path class="st1" d="M27.7,101.6c2.4-0.2,4.9-0.5,7.4-0.7v13.2c-2.5,0.1-5,0.3-7.4,0.4C27.7,110.2,27.7,105.9,27.7,101.6z"/>
<path class="st1" d="M17.6,82.8c2.2-0.4,4.6-0.7,6.9-1.1v12.7c-2.3,0.3-4.6,0.6-6.9,0.8V82.8z"/>
<path class="st1" d="M17.6,102.6c2.2-0.2,4.5-0.5,6.9-0.7v12.7c-2.3,0.1-4.6,0.3-6.9,0.4V102.6z"/>
<path class="st1" d="M141.2,62.6c4.4-0.7,9-1.5,13.7-2.2v18c-4.7,0.6-9.2,1.1-13.7,1.7V62.6z"/>
<path class="st1" d="M141.2,90.4c4.4-0.4,9-0.9,13.7-1.4c0,6,0,12,0,18c-4.7,0.3-9.2,0.5-13.7,0.8V90.4z"/>
<path class="st1" d="M122.7,65.6c4.1-0.7,8.2-1.3,12.5-2v17.2c-4.3,0.5-8.4,1-12.5,1.5V65.6z"/>
<path class="st1" d="M86.8,123.3V101c4.4-0.4,9-0.8,13.6-1.2v23.4L86.8,123.3z"/>
<path class="st1" d="M67.7,123.3v-20.7c4-0.3,8.1-0.7,12.3-1v21.8H67.7z"/>
<path class="st1" d="M50.4,123.3v-19.3c3.6-0.3,7.3-0.6,11.1-0.9v20.2H50.4z"/>
<path class="st1" d="M148,47.5v-1.9l-35.7-8.7c-13.8,3.3-26.6,6.4-38.7,9.2c-11.3,2.7-21.9,5.2-31.9,7.6v5.6c0.5-0.1,1-0.2,1.5-0.3
	v64.3h-2.5V69.7c-10.4,2-20.2,3.9-29.4,5.6v5c0.4-0.1,0.8-0.1,1.2-0.2v22.1v21H0.9v10.9h211.7v-10.9h-10.7V63l-33.6-7.5v67.8h-2.7
	V53.4l2.9-0.5l35.7,7.9v-6.9l-35.7-8.7c-10.4,2-31.3,6-31.3,6l-24.5-5.4v77.5h-2.6V44.2"/>
<path class="st1" d="M97.5,4c5.5-1.8,12.5-2.9,19.4-0.7c5.4,1.7,9.6,3.9,15.9,0.1V25c-6.2,4.1-12.2,5.1-18.7,1.6
	c-5.6-3-12-2.9-16.6,0.7V4z"/>
<polygon class="st1" points="88.2,39.6 88.2,4 94.6,4 94.6,38.1 "/>
<path class="st1" d="M122.7,92.2c4.1-0.4,8.2-0.8,12.5-1.2v17.2c-4.3,0.3-8.4,0.5-12.5,0.7V92.2z"/>
</svg>
