<?xml version="1.0" encoding="utf-8"?>
<!-- Generator: Adobe Illustrator 28.0.0, SVG Export Plug-In . SVG Version: 6.00 Build 0)  -->
<svg version="1.1" id="Ebene_1" xmlns="http://www.w3.org/2000/svg" x="0px" y="0px"
     viewBox="0 0 210.4 104.1" style="enable-background:new 0 0 210.4 104.1;" xml:space="preserve">
<style type="text/css">
	.st0{fill:#FFFFFF;}
	.st1{fill:none;stroke:#5FACBD;stroke-width:1.873;stroke-linecap:round;stroke-linejoin:round;stroke-miterlimit:10;}
</style>
<g>
	<path class="st1" d="M19.9,46.9c3-0.5,6-1,9.1-1.5V61c-3.1,0.4-6.1,0.7-9.1,1.1V46.9z M33.8,44.6c3.2-0.5,6.5-1.1,9.9-1.7v16.3
		c-3.4,0.4-6.7,0.8-9.9,1.2V44.6z M49,42.1c3.5-0.6,7.1-1.2,10.8-1.8v17c-3.7,0.4-7.3,0.9-10.8,1.3V42.1z M65.5,39.3
		c3.9-0.6,7.8-1.3,11.9-2v17.9c-4,0.5-8,1-11.9,1.4V39.3z M83.7,36.3c4.3-0.7,8.6-1.4,13.1-2.2v18.7c-4.5,0.5-8.8,1.1-13.1,1.6V36.3
		z M103.8,32.9c4.7-0.8,9.5-1.6,14.5-2.4v19.8c-5,0.6-9.8,1.2-14.5,1.7V32.9z M126,29.2c5.3-0.9,10.6-1.8,16.2-2.7v20.9
		c-5.5,0.7-10.9,1.3-16.2,1.9V29.2z M19.9,68.9c3-0.3,6-0.6,9.1-0.9v15.6c-3.1,0.2-6.1,0.3-9.1,0.5V68.9z M33.8,67.5
		c3.2-0.3,6.5-0.6,9.9-1v16.3c-3.4,0.2-6.7,0.4-9.9,0.5V67.5z M103.8,60.6c4.7-0.5,9.5-0.9,14.5-1.4c0,6.6,0,13.2,0,19.7
		c-5,0.3-9.8,0.5-14.5,0.8V60.6z M126,58.4c5.3-0.5,10.6-1.1,16.2-1.6v20.9c-5.5,0.3-10.9,0.6-16.2,0.9V58.4z M102.1,17.7
		L102.1,17.7v-5.2l11.8,2.9 M73.6,90.5V67c5.5-0.5,11.1-1,16.9-1.5v25L73.6,90.5z M54,90.5V68.8c4.9-0.4,10-0.9,15.2-1.4v23.1H54z
		 M140.1,10.2l-38-9.2L45,15v7.4c0.9-0.2,1.8-0.4,2.6-0.6v9L11.3,38v6.6l2-0.4v46.3H0.9v12.6h208.6V90.5h-11.6V30.6l-38.5-8.5v68.4
		h-4.3V19c1.4-0.3,2.8-0.5,4.3-0.8l41.4,9.2v-8.9L159.5,8.5L98.6,20.6V10.3l3.5-0.8l19.6,4.3"/>
</g>
</svg>
