<?xml version="1.0" encoding="UTF-8"?><svg id="uuid-f80d7efc-c9cc-47b9-9860-30b5ccedf3b7" xmlns="http://www.w3.org/2000/svg" viewBox="0 0 27.65 27.65"><defs><style>.uuid-b01d7646-3788-4ea1-aeab-7ea54532d764{fill:#245a74;fill-rule:evenodd;stroke-width:0px;}</style></defs><path class="uuid-b01d7646-3788-4ea1-aeab-7ea54532d764" d="m17.85,6.54h-8.05c-1.81,0-3.29,1.47-3.29,3.29v8.01c0,1.81,1.47,3.29,3.29,3.29h8.05c1.81,0,3.29-1.47,3.29-3.29v-8.01c0-1.81-1.47-3.29-3.29-3.29Zm-4,12.09h-.04c-2.61,0-4.76-2.15-4.76-4.8s2.15-4.8,4.76-4.8h.04c2.61,0,4.8,2.19,4.8,4.8s-2.19,4.8-4.8,4.8Zm4.72-8.51c-.59,0-1.01-.46-1.01-1.01s.42-1.01,1.01-1.01c.55,0,1.01.46,1.01,1.01s-.46,1.01-1.01,1.01Z"/><path class="uuid-b01d7646-3788-4ea1-aeab-7ea54532d764" d="m13.85,10.66h-.04c-1.73,0-3.16,1.43-3.16,3.16s1.43,3.2,3.16,3.2h.04c1.73,0,3.16-1.43,3.16-3.2s-1.43-3.16-3.16-3.16Z"/><path class="uuid-b01d7646-3788-4ea1-aeab-7ea54532d764" d="m13.83,0C6.19,0,0,6.19,0,13.83s6.19,13.82,13.83,13.82,13.82-6.19,13.82-13.82S21.46,0,13.83,0Zm8.83,17.87c0,2.61-2.15,4.76-4.76,4.76h-8.13c-2.61,0-4.76-2.15-4.76-4.76v-8.09c0-2.61,2.15-4.76,4.76-4.76h8.13c2.61,0,4.76,2.15,4.76,4.76v8.09Z"/></svg>