<?xml version="1.0" encoding="UTF-8"?><svg id="uuid-fbf793c3-583c-43a4-871d-41e1735eac86" xmlns="http://www.w3.org/2000/svg" viewBox="0 0 27.65 27.65"><defs><style>.uuid-a939791c-5316-4707-800b-c0471643504b{fill:#245a74;fill-rule:evenodd;stroke-width:0px;}</style></defs><path class="uuid-a939791c-5316-4707-800b-c0471643504b" d="m13.82,0C6.19,0,0,6.19,0,13.82s6.19,13.83,13.82,13.83,13.83-6.19,13.83-13.83S21.46,0,13.82,0Zm-4.58,21.5h-3.11v-10.45h3.11v10.45Zm-1.58-11.99c-1.04,0-1.84-.85-1.84-1.88s.81-1.88,1.84-1.88,1.88.85,1.88,1.88-.85,1.88-1.88,1.88Zm13.84,6.53v5.46h-3.07v-5.65c-.04-1.19-.85-2.11-2.04-2.11s-2.19.92-2.23,2.11v5.65h-3.07v-10.45h3.07v1.46c.65-.96,1.73-1.58,2.96-1.58h.85c1.96,0,3.54,1.61,3.54,3.54v1.58Z"/></svg>