<?xml version="1.0" encoding="utf-8"?>
<!-- Generator: Adobe Illustrator 28.0.0, SVG Export Plug-In . SVG Version: 6.00 Build 0)  -->
<svg version="1.1" id="Ebene_1" xmlns="http://www.w3.org/2000/svg" x="0px" y="0px"
     viewBox="0 0 717.2 70.2" style="enable-background:new 0 0 717.2 70.2;" xml:space="preserve">
<style type="text/css">
	.st0{fill:#1D1D1B;}
	.st1{fill:#E63027;}
</style>
<g>
	<g>
		<path class="st0" d="M7.5,44.8l1.3,1c4.4,3.4,9.7,6.2,15.4,6.2c2.4,0,6.3-1,6.3-4.1c0-3.1-3.2-3.3-5.5-3.8l-4.9-0.9
			c-9.6-1.7-17.7-7.4-17.7-18C2.3,9.2,17,0.2,31.7,0.2c7.7,0,14.8,1.9,21.5,5.9l-6.7,17.3c-4.2-2.9-9-5.1-14.3-5.1
			c-2.2,0-5.3,0.8-5.3,3.6c0,2.5,3.1,2.9,4.9,3.3l5.6,1.3c10.4,2.3,18,7.9,18,19.4c0,16.2-14.7,24.2-29.4,24.2
			C17.5,70.2,7.6,67.8,0,64L7.5,44.8z"/>
		<path class="st0" d="M79.7,19.8H82c4,0,9.1,0.3,9.1,5.6c0,5.5-4.7,6.2-9,6.2h-2.4V19.8z M56,69.1h23.7V48.7h12.6
			c13.8,0,22.4-8.6,22.4-22.5c0-16.8-11.7-24.9-27.5-24.9H56V69.1z"/>
		<path class="st0" d="M144.6,26.5c0-4.5,2.3-8.3,7-8.3c4.5,0,7.6,4,7.6,8.3H144.6z M190,39.8C191.5,15.8,173.5,1,150.6,1
			c-20.4,0-36.9,13.3-36.9,34.6c0,22.1,18.5,32.5,38.7,32.5c14.8,0,32.1-7.1,36.2-22.6h-30.4c-0.6,3-3,5.3-6.3,5.3
			c-6.5,0-7.4-5.8-7.4-11H190z"/>
		<path class="st0" d="M214.9,22.5h1.5c9,0,14.5,4,14.5,13.6c0,8.9-6.3,12.7-14.5,12.7h-1.5V22.5z M190.3,69.1h31.2
			c19.9,0,34.1-12.8,34.1-32.9c0-24.9-17.4-34.9-40.2-34.9h-25.1V69.1z"/>
	</g>
	<polygon class="st1" points="256.3,1.3 280.9,1.3 280.9,51.8 298.9,51.8 298.9,69.1 256.3,69.1 	"/>
	<g>
		<path class="st1" d="M318.5,22.5c7.8,0,12.7,6,12.7,13.2c0,7.7-5.2,13-12.7,13c-7.5,0-12.7-5.3-12.7-13
			C305.8,28.5,310.7,22.5,318.5,22.5 M318.5,70.2c20.7,0,37.5-13,37.5-34.8c0-21.3-16.9-35.2-37.5-35.2c-20.6,0-37.5,13.8-37.5,35.2
			L318.5,70.2z"/>
		<path class="st1" d="M404.3,42.5h-11.1V29.3h37.7v5.6l0,0.8c-0.3,21.4-17,34.2-37.5,34.2c-20.7,0-37.5-13-37.5-34.8
			c0-21.3,16.9-35.1,37.5-35.1c11.1,0,21.1,4,28,11.1l-16.8,18.1c-2-4-5.9-6.8-11.3-6.8c-7.8,0-12.7,6-12.7,13.2
			c0,7.7,5.2,13,12.7,13c4.9,0,8.8-2.2,10.9-5.9L404.3,42.5z"/>
		<path class="st0" d="M436.2,44.4l1.3,1c4.4,3.4,9.6,6.2,15.3,6.2c2.4,0,6.2-1,6.2-4c0-3-3.2-3.3-5.5-3.7l-4.9-0.9
			c-9.5-1.7-17.6-7.3-17.6-17.8c0-16,14.5-24.9,29.1-24.9c7.7,0,14.7,1.9,21.3,5.9l-6.6,17.2c-4.2-2.9-8.9-5.1-14.2-5.1
			c-2.1,0-5.3,0.8-5.3,3.6c0,2.5,3,2.9,4.9,3.3l5.5,1.2c10.4,2.3,17.8,7.9,17.8,19.3c0,16.1-14.6,24-29.2,24
			c-8.5,0-18.3-2.3-25.9-6.1L436.2,44.4z"/>
		<path class="st0" d="M505.7,1.2l8.5,40.1h0.5c0.5-4.1,1-8.4,2.1-12.4l7.1-27.7h18.7l9.2,40.1h0.5c0.4-3.9,0.8-8,1.7-11.9l6.8-28.3
			h25.4l-23.7,67.2h-21.3l-7.7-36.6h-0.8c-0.3,3.5-0.4,6.9-1.2,10.2l-6.8,26.4h-20.8L480.4,1.2H505.7z"/>
	</g>
	<rect x="586.5" y="1.2" class="st0" width="24.4" height="67.2"/>
	<g>
		<path class="st0" d="M618.9,44.4l1.2,1c4.4,3.4,9.6,6.2,15.2,6.2c2.4,0,6.2-1,6.2-4c0-3-3.2-3.3-5.4-3.7l-4.9-0.9
			c-9.6-1.7-17.6-7.3-17.6-17.8c0-16,14.5-24.9,29.2-24.9c7.7,0,14.7,1.9,21.3,5.9l-6.6,17.2c-4.2-2.9-8.9-5.1-14.2-5.1
			c-2.1,0-5.3,0.8-5.3,3.6c0,2.5,3,2.9,4.9,3.3l5.5,1.2c10.3,2.3,17.8,7.9,17.8,19.3c0,16.1-14.6,24-29.2,24
			c-8.5,0-18.3-2.3-25.9-6.1L618.9,44.4z"/>
		<path class="st0" d="M669.7,44.4l1.3,1c4.4,3.4,9.6,6.2,15.2,6.2c2.4,0,6.2-1,6.2-4c0-3-3.2-3.3-5.4-3.7l-4.9-0.9
			c-9.5-1.7-17.6-7.3-17.6-17.8c0-16,14.5-24.9,29.2-24.9c7.7,0,14.7,1.9,21.3,5.9l-6.6,17.2c-4.2-2.9-8.9-5.1-14.2-5.1
			c-2.1,0-5.3,0.8-5.3,3.6c0,2.5,3,2.9,4.9,3.3l5.5,1.2c10.3,2.3,17.8,7.9,17.8,19.3c0,16.1-14.6,24-29.2,24
			c-8.5,0-18.3-2.3-25.9-6.1L669.7,44.4z"/>
	</g>
</g>
</svg>
