<?xml version="1.0" encoding="utf-8"?>
<!-- Generator: Adobe Illustrator 28.0.0, SVG Export Plug-In . SVG Version: 6.00 Build 0)  -->
<svg version="1.1" id="Ebene_1" xmlns="http://www.w3.org/2000/svg" xmlns:xlink="http://www.w3.org/1999/xlink" x="0px" y="0px"
	 viewBox="0 0 26.6 27.6" style="enable-background:new 0 0 26.6 27.6;" xml:space="preserve">
<style type="text/css">
	.st0{fill:#FFFFFF;}
	.st1{fill:none;stroke:#5FACBD;stroke-width:1.873;stroke-linecap:round;stroke-linejoin:round;stroke-miterlimit:10;}
	.st2{clip-path:url(#SVGID_00000056396781474355431860000013875040452709222298_);fill:#245A74;}
	.st3{clip-path:url(#SVGID_00000056396781474355431860000013875040452709222298_);fill:#FFFFFF;}
</style>
<g>
	<defs>
		<rect id="SVGID_1_" width="26.6" height="27.6"/>
	</defs>
	<clipPath id="SVGID_00000016072084867204386030000010851052338169149365_">
		<use xlink:href="#SVGID_1_"  style="overflow:visible;"/>
	</clipPath>
	<path style="clip-path:url(#SVGID_00000016072084867204386030000010851052338169149365_);fill:#245A74;" d="M0,13.8
		C0,6.2,6,0,13.3,0c7.3,0,13.3,6.2,13.3,13.8s-6,13.8-13.3,13.8C6,27.6,0,21.5,0,13.8"/>
	<path style="clip-path:url(#SVGID_00000016072084867204386030000010851052338169149365_);fill:#FFFFFF;" d="M13.6,5.8
		c-4.1,0-7.4,3.5-7.4,7.7c0,1.5,0.4,2.8,1.1,4l-1.3,4.1l4.1-1.4c1.1,0.6,2.3,1,3.6,1c4.1,0,7.4-3.5,7.4-7.7S17.7,5.8,13.6,5.8
		 M13.6,19.9c-1.3,0-2.4-0.4-3.4-1.1l-2.4,0.8l0.8-2.4c-0.7-1.1-1.2-2.4-1.2-3.8c0-3.6,2.8-6.4,6.2-6.4c3.4,0,6.2,2.9,6.2,6.4
		S17,19.9,13.6,19.9 M17.1,15.2c-0.2-0.1-1.1-0.6-1.3-0.7c-0.2-0.1-0.3-0.1-0.4,0.1c-0.1,0.2-0.5,0.6-0.6,0.8
		c-0.1,0.1-0.2,0.1-0.4,0c-0.2-0.1-0.8-0.3-1.5-1c-0.5-0.5-0.9-1.2-1-1.4c-0.1-0.2,0-0.3,0.1-0.4c0.1-0.1,0.2-0.2,0.3-0.3
		c0.1-0.1,0.1-0.2,0.2-0.3c0.1-0.1,0-0.2,0-0.3c0-0.1-0.4-1.1-0.5-1.5c-0.1-0.4-0.3-0.3-0.4-0.3c-0.1,0-0.2,0-0.4,0
		c-0.1,0-0.3,0-0.5,0.2c-0.2,0.2-0.7,0.6-0.7,1.6c0,1,0.6,1.9,0.7,2.1c0.1,0.1,1.2,2.2,3.1,3.1c1.9,0.9,1.9,0.6,2.3,0.6
		c0.3,0,1.1-0.4,1.3-0.9c0.2-0.5,0.2-0.8,0.1-0.9C17.4,15.4,17.3,15.4,17.1,15.2"/>
</g>
</svg>
