<svg width="159" height="27" viewBox="0 0 159 27" fill="none" xmlns="http://www.w3.org/2000/svg">
<g clip-path="url(#clip0_22_2)">
<mask id="mask0_22_2" style="mask-type:luminance" maskUnits="userSpaceOnUse" x="0" y="0" width="27" height="27">
<path d="M27 0H0V27H27V0Z" fill="white"/>
</mask>
<g mask="url(#mask0_22_2)">
<path d="M20.25 1.13625L9 1.125C7.7625 1.125 6.75 2.1375 6.75 3.375V6.75H9V5.625H20.25V21.375H9V20.25H6.75V23.625C6.75 24.8625 7.7625 25.875 9 25.875H20.25C21.4875 25.875 22.5 24.8625 22.5 23.625V3.375C22.5 2.1375 21.4875 1.13625 20.25 1.13625ZM11.25 16.875H13.5V9H5.625V11.25H9.66375L3.375 17.5388L4.96125 19.125L11.25 12.8362V16.875Z" fill="black"/>
</g>
<path d="M27.5824 17V16.1797L31.3111 10.8317H27.5611V9.72727H32.9446V10.5476L29.2195 15.8956H32.9659V17H27.5824ZM37.6605 14.706V11.5455H38.946V17H37.6996V16.0305H37.6428C37.5196 16.3359 37.3172 16.5857 37.0355 16.7798C36.7562 16.974 36.4117 17.071 36.0021 17.071C35.6446 17.071 35.3286 16.9917 35.054 16.8331C34.7817 16.6721 34.5687 16.4389 34.4148 16.1335C34.2609 15.8258 34.1839 15.4541 34.1839 15.0185V11.5455H35.4695V14.8196C35.4695 15.1652 35.5642 15.4399 35.7536 15.6435C35.9429 15.8471 36.1915 15.9489 36.4993 15.9489C36.6887 15.9489 36.8722 15.9027 37.0497 15.8104C37.2273 15.718 37.3729 15.5807 37.4865 15.3984C37.6025 15.2138 37.6605 14.983 37.6605 14.706ZM40.2679 17V11.5455H41.4966V12.4723H41.5605C41.6742 12.1598 41.8624 11.916 42.1252 11.7408C42.388 11.5632 42.7016 11.4744 43.0662 11.4744C43.4355 11.4744 43.7469 11.5644 44.0002 11.7443C44.2559 11.9219 44.4358 12.1645 44.54 12.4723H44.5968C44.7175 12.1693 44.9211 11.9278 45.2076 11.7479C45.4964 11.5656 45.8385 11.4744 46.2338 11.4744C46.7357 11.4744 47.1453 11.633 47.4625 11.9503C47.7798 12.2675 47.9384 12.7304 47.9384 13.3388V17H46.6493V13.5376C46.6493 13.1991 46.5594 12.9517 46.3794 12.7955C46.1995 12.6368 45.9793 12.5575 45.7189 12.5575C45.4088 12.5575 45.1661 12.6546 44.9909 12.8487C44.8181 13.0405 44.7317 13.2902 44.7317 13.598V17H43.4711V13.4844C43.4711 13.2027 43.3858 12.9777 43.2154 12.8097C43.0473 12.6416 42.8271 12.5575 42.5549 12.5575C42.3702 12.5575 42.2021 12.6049 42.0506 12.6996C41.8991 12.7919 41.7783 12.9233 41.6884 13.0938C41.5984 13.2618 41.5534 13.4583 41.5534 13.6832V17H40.2679ZM55.7322 11.7266C55.6991 11.4164 55.5594 11.175 55.3132 11.0021C55.0694 10.8293 54.7521 10.7429 54.3615 10.7429C54.0869 10.7429 53.8513 10.7843 53.6548 10.8672C53.4583 10.95 53.308 11.0625 53.2038 11.2045C53.0997 11.3466 53.0464 11.5088 53.044 11.6911C53.044 11.8426 53.0784 11.974 53.147 12.0852C53.218 12.1965 53.3139 12.2912 53.4347 12.3693C53.5554 12.4451 53.6892 12.509 53.8359 12.5611C53.9827 12.6132 54.1307 12.657 54.2798 12.6925L54.9616 12.8629C55.2363 12.9268 55.5002 13.0133 55.7536 13.1222C56.0092 13.2311 56.2377 13.3684 56.4389 13.5341C56.6425 13.6998 56.8035 13.8999 56.9219 14.1342C57.0402 14.3686 57.0994 14.6432 57.0994 14.9581C57.0994 15.3842 56.9905 15.7595 56.7727 16.0838C56.5549 16.4058 56.2401 16.6579 55.8281 16.8402C55.4186 17.0201 54.9226 17.1101 54.3402 17.1101C53.7744 17.1101 53.2831 17.0225 52.8665 16.8473C52.4522 16.6721 52.1278 16.4164 51.8935 16.0803C51.6615 15.7441 51.536 15.3345 51.517 14.8516H52.8132C52.8321 15.1049 52.9103 15.3156 53.0476 15.4837C53.1849 15.6518 53.3636 15.7772 53.5838 15.8601C53.8063 15.9429 54.0549 15.9844 54.3295 15.9844C54.616 15.9844 54.867 15.9418 55.0824 15.8565C55.3002 15.7689 55.4706 15.6482 55.5938 15.4943C55.7169 15.3381 55.7796 15.1558 55.782 14.9474C55.7796 14.758 55.724 14.6018 55.6151 14.4787C55.5062 14.3532 55.3535 14.2491 55.157 14.1662C54.9628 14.081 54.7356 14.0052 54.4751 13.9389L53.6477 13.7259C53.0488 13.572 52.5753 13.3388 52.2273 13.0263C51.8816 12.7114 51.7088 12.2936 51.7088 11.7727C51.7088 11.3442 51.8248 10.969 52.0568 10.647C52.2912 10.325 52.6096 10.0753 53.0121 9.89773C53.4145 9.7178 53.8703 9.62784 54.3793 9.62784C54.8954 9.62784 55.3475 9.7178 55.7358 9.89773C56.1264 10.0753 56.433 10.3227 56.6555 10.6399C56.8781 10.9548 56.9929 11.317 57 11.7266H55.7322ZM60.9409 11.5455V12.5398H57.8052V11.5455H60.9409ZM58.5794 10.2386H59.8649V15.3594C59.8649 15.5322 59.8909 15.6648 59.943 15.7571C59.9975 15.8471 60.0685 15.9086 60.1561 15.9418C60.2437 15.9749 60.3407 15.9915 60.4473 15.9915C60.5278 15.9915 60.6011 15.9856 60.6674 15.9737C60.7361 15.9619 60.7882 15.9512 60.8237 15.9418L61.0403 16.9467C60.9717 16.9704 60.8734 16.9964 60.7456 17.0249C60.6201 17.0533 60.4662 17.0698 60.2839 17.0746C59.9619 17.084 59.6719 17.0355 59.4139 16.929C59.1558 16.8201 58.9511 16.652 58.7995 16.4247C58.6504 16.1974 58.577 15.9134 58.5794 15.5724V10.2386ZM63.5856 17.1101C63.2399 17.1101 62.9286 17.0485 62.6516 16.9254C62.377 16.8 62.1592 16.6153 61.9982 16.3714C61.8396 16.1276 61.7603 15.8269 61.7603 15.4695C61.7603 15.1617 61.8171 14.9072 61.9308 14.706C62.0444 14.5047 62.1995 14.3438 62.396 14.223C62.5924 14.1023 62.8138 14.0111 63.06 13.9496C63.3086 13.8857 63.5655 13.8395 63.8306 13.8111C64.1502 13.7779 64.4094 13.7483 64.6083 13.7223C64.8072 13.6939 64.9516 13.6513 65.0415 13.5945C65.1339 13.5353 65.18 13.4441 65.18 13.321V13.2997C65.18 13.0322 65.1007 12.825 64.9421 12.6783C64.7835 12.5315 64.555 12.4581 64.2567 12.4581C63.9419 12.4581 63.6921 12.5268 63.5075 12.6641C63.3252 12.8014 63.2021 12.9635 63.1381 13.1506L61.9379 12.9801C62.0326 12.6487 62.1888 12.3717 62.4066 12.1491C62.6244 11.9242 62.8907 11.7562 63.2056 11.6449C63.5205 11.5312 63.8685 11.4744 64.2496 11.4744C64.5124 11.4744 64.774 11.5052 65.0344 11.5668C65.2949 11.6283 65.5328 11.7301 65.7482 11.8722C65.9637 12.0118 66.1365 12.2024 66.2667 12.4439C66.3993 12.6854 66.4656 12.9872 66.4656 13.3494V17H65.2298V16.2507H65.1871C65.109 16.4022 64.9989 16.5443 64.8569 16.6768C64.7172 16.8071 64.5408 16.9124 64.3278 16.9929C64.1171 17.071 63.8697 17.1101 63.5856 17.1101ZM63.9194 16.1655C64.1774 16.1655 64.4012 16.1146 64.5906 16.0128C64.7799 15.9086 64.9255 15.7713 65.0273 15.6009C65.1315 15.4304 65.1836 15.2446 65.1836 15.0433V14.4006C65.1433 14.4337 65.0747 14.4645 64.9776 14.4929C64.8829 14.5213 64.7764 14.5462 64.658 14.5675C64.5397 14.5888 64.4225 14.6077 64.3065 14.6243C64.1905 14.6409 64.0898 14.6551 64.0046 14.6669C63.8129 14.6929 63.6412 14.7356 63.4897 14.7947C63.3382 14.8539 63.2186 14.9368 63.131 15.0433C63.0434 15.1475 62.9996 15.2824 62.9996 15.4482C62.9996 15.6849 63.0861 15.8636 63.2589 15.9844C63.4317 16.1051 63.6519 16.1655 63.9194 16.1655ZM67.7582 17V11.5455H69.0046V12.4545H69.0614C69.1609 12.1397 69.3313 11.897 69.5728 11.7266C69.8166 11.5537 70.0948 11.4673 70.4073 11.4673C70.4783 11.4673 70.5576 11.4709 70.6452 11.478C70.7352 11.4827 70.8098 11.491 70.869 11.5028V12.6854C70.8145 12.6664 70.7281 12.6499 70.6097 12.6357C70.4937 12.6191 70.3813 12.6108 70.2724 12.6108C70.038 12.6108 69.8273 12.6617 69.6403 12.7635C69.4556 12.8629 69.31 13.0014 69.2035 13.179C69.0969 13.3565 69.0437 13.5613 69.0437 13.7933V17H67.7582ZM74.7397 11.5455V12.5398H71.604V11.5455H74.7397ZM72.3782 10.2386H73.6637V15.3594C73.6637 15.5322 73.6897 15.6648 73.7418 15.7571C73.7963 15.8471 73.8673 15.9086 73.9549 15.9418C74.0425 15.9749 74.1396 15.9915 74.2461 15.9915C74.3266 15.9915 74.4 15.9856 74.4663 15.9737C74.5349 15.9619 74.587 15.9512 74.6225 15.9418L74.8391 16.9467C74.7705 16.9704 74.6722 16.9964 74.5444 17.0249C74.4189 17.0533 74.265 17.0698 74.0827 17.0746C73.7608 17.084 73.4708 17.0355 73.2127 16.929C72.9547 16.8201 72.7499 16.652 72.5984 16.4247C72.4492 16.1974 72.3758 15.9134 72.3782 15.5724V10.2386ZM75.9888 17V9.72727H77.2743V12.4474H77.3276C77.3939 12.3149 77.4874 12.174 77.6081 12.0249C77.7289 11.8733 77.8922 11.7443 78.0982 11.6378C78.3042 11.5289 78.5669 11.4744 78.8865 11.4744C79.3079 11.4744 79.6879 11.5821 80.0265 11.7976C80.3674 12.0107 80.6373 12.3267 80.8361 12.7457C81.0373 13.1624 81.138 13.6738 81.138 14.2798C81.138 14.8788 81.0397 15.3878 80.8432 15.8068C80.6467 16.2259 80.3792 16.5455 80.0407 16.7656C79.7021 16.9858 79.3186 17.0959 78.8901 17.0959C78.5776 17.0959 78.3184 17.0438 78.1124 16.9396C77.9064 16.8355 77.7407 16.71 77.6152 16.5632C77.4921 16.4141 77.3962 16.2732 77.3276 16.1406H77.253V17H75.9888ZM77.2495 14.2727C77.2495 14.6255 77.2992 14.9344 77.3986 15.1996C77.5004 15.4647 77.646 15.6719 77.8354 15.821C78.0272 15.9678 78.2592 16.0412 78.5314 16.0412C78.8155 16.0412 79.0534 15.9654 79.2452 15.8139C79.437 15.66 79.5814 15.4505 79.6784 15.1854C79.7779 14.9179 79.8276 14.6136 79.8276 14.2727C79.8276 13.9342 79.7791 13.6335 79.682 13.3707C79.5849 13.108 79.4405 12.902 79.2488 12.7528C79.057 12.6037 78.8179 12.5291 78.5314 12.5291C78.2568 12.5291 78.0236 12.6013 77.8319 12.7457C77.6401 12.8902 77.4945 13.0926 77.3951 13.353C77.298 13.6134 77.2495 13.92 77.2495 14.2727ZM82.2308 17V11.5455H83.5163V17H82.2308ZM82.8771 10.7713C82.6735 10.7713 82.4983 10.7038 82.3516 10.5689C82.2048 10.4316 82.1314 10.267 82.1314 10.0753C82.1314 9.88116 82.2048 9.71662 82.3516 9.58168C82.4983 9.44437 82.6735 9.37571 82.8771 9.37571C83.0831 9.37571 83.2583 9.44437 83.4027 9.58168C83.5495 9.71662 83.6229 9.88116 83.6229 10.0753C83.6229 10.267 83.5495 10.4316 83.4027 10.5689C83.2583 10.7038 83.0831 10.7713 82.8771 10.7713ZM86.1238 9.72727V17H84.8382V9.72727H86.1238ZM89.4698 17.0959C89.0413 17.0959 88.6578 16.9858 88.3192 16.7656C87.9807 16.5455 87.7132 16.2259 87.5167 15.8068C87.3202 15.3878 87.2219 14.8788 87.2219 14.2798C87.2219 13.6738 87.3214 13.1624 87.5202 12.7457C87.7215 12.3267 87.9925 12.0107 88.3335 11.7976C88.6744 11.5821 89.0543 11.4744 89.4734 11.4744C89.793 11.4744 90.0558 11.5289 90.2617 11.6378C90.4677 11.7443 90.631 11.8733 90.7518 12.0249C90.8725 12.174 90.966 12.3149 91.0323 12.4474H91.0856V9.72727H92.3746V17H91.1104V16.1406H91.0323C90.966 16.2732 90.8701 16.4141 90.7447 16.5632C90.6192 16.71 90.4535 16.8355 90.2475 16.9396C90.0415 17.0438 89.7823 17.0959 89.4698 17.0959ZM89.8285 16.0412C90.1007 16.0412 90.3327 15.9678 90.5245 15.821C90.7163 15.6719 90.8619 15.4647 90.9613 15.1996C91.0607 14.9344 91.1104 14.6255 91.1104 14.2727C91.1104 13.92 91.0607 13.6134 90.9613 13.353C90.8642 13.0926 90.7198 12.8902 90.5281 12.7457C90.3387 12.6013 90.1055 12.5291 89.8285 12.5291C89.542 12.5291 89.3029 12.6037 89.1112 12.7528C88.9194 12.902 88.775 13.108 88.6779 13.3707C88.5808 13.6335 88.5323 13.9342 88.5323 14.2727C88.5323 14.6136 88.5808 14.9179 88.6779 15.1854C88.7773 15.4505 88.9229 15.66 89.1147 15.8139C89.3088 15.9654 89.5468 16.0412 89.8285 16.0412ZM98.0556 12.9872L96.8837 13.1151C96.8506 12.9967 96.7926 12.8854 96.7097 12.7812C96.6292 12.6771 96.5203 12.593 96.383 12.5291C96.2457 12.4652 96.0776 12.4332 95.8787 12.4332C95.6112 12.4332 95.3863 12.4912 95.204 12.6072C95.0241 12.7232 94.9353 12.8736 94.9377 13.0582C94.9353 13.2169 94.9933 13.3459 95.1117 13.4453C95.2324 13.5447 95.4313 13.6264 95.7083 13.6903L96.6387 13.8892C97.1548 14.0005 97.5383 14.1768 97.7892 14.4183C98.0426 14.6598 98.1704 14.9759 98.1728 15.3665C98.1704 15.7098 98.0698 16.0128 97.8709 16.2756C97.6744 16.536 97.401 16.7396 97.0506 16.8864C96.7002 17.0331 96.2978 17.1065 95.8432 17.1065C95.1756 17.1065 94.6382 16.9669 94.231 16.6875C93.8238 16.4058 93.5811 16.014 93.503 15.5121L94.7566 15.3913C94.8134 15.6375 94.9341 15.8234 95.1188 15.9489C95.3034 16.0743 95.5437 16.1371 95.8397 16.1371C96.1451 16.1371 96.3901 16.0743 96.5748 15.9489C96.7618 15.8234 96.8553 15.6683 96.8553 15.4837C96.8553 15.3274 96.7949 15.1984 96.6742 15.0966C96.5558 14.9948 96.3712 14.9167 96.1202 14.8622L95.1898 14.6669C94.6666 14.558 94.2795 14.3745 94.0286 14.1165C93.7776 13.8561 93.6533 13.527 93.6557 13.1293C93.6533 12.7931 93.7445 12.5019 93.9292 12.2557C94.1162 12.0071 94.3754 11.8153 94.7069 11.6804C95.0407 11.5431 95.4254 11.4744 95.861 11.4744C96.5002 11.4744 97.0033 11.6106 97.3702 11.8828C97.7395 12.1551 97.968 12.5232 98.0556 12.9872ZM101.612 17.1065C101.068 17.1065 100.6 16.987 100.209 16.7479C99.8211 16.5088 99.5216 16.1785 99.3109 15.7571C99.1026 15.3333 98.9984 14.8456 98.9984 14.294C98.9984 13.7401 99.1049 13.2512 99.318 12.8274C99.5311 12.4013 99.8317 12.0698 100.22 11.8331C100.611 11.594 101.072 11.4744 101.605 11.4744C102.048 11.4744 102.439 11.5561 102.78 11.7195C103.124 11.8804 103.397 12.1089 103.601 12.4048C103.804 12.6984 103.92 13.0417 103.949 13.4347H102.72C102.67 13.1719 102.552 12.9529 102.365 12.7777C102.18 12.6001 101.933 12.5114 101.623 12.5114C101.36 12.5114 101.129 12.5824 100.93 12.7244C100.731 12.8641 100.576 13.0653 100.465 13.3281C100.356 13.5909 100.302 13.9058 100.302 14.2727C100.302 14.6444 100.356 14.964 100.465 15.2315C100.574 15.4967 100.727 15.7015 100.923 15.8459C101.122 15.9879 101.355 16.0589 101.623 16.0589C101.812 16.0589 101.981 16.0234 102.131 15.9524C102.282 15.879 102.409 15.7737 102.51 15.6364C102.612 15.4991 102.682 15.3321 102.72 15.1357H103.949C103.918 15.5215 103.804 15.8636 103.608 16.1619C103.411 16.4579 103.144 16.6899 102.805 16.858C102.467 17.0237 102.069 17.1065 101.612 17.1065ZM106.29 13.804V17H105.004V9.72727H106.261V12.4723H106.325C106.453 12.1645 106.651 11.9219 106.918 11.7443C107.188 11.5644 107.531 11.4744 107.948 11.4744C108.327 11.4744 108.657 11.5537 108.939 11.7124C109.221 11.871 109.438 12.103 109.592 12.4084C109.749 12.7138 109.827 13.0866 109.827 13.527V17H108.541V13.7259C108.541 13.3589 108.446 13.0736 108.257 12.87C108.07 12.6641 107.807 12.5611 107.469 12.5611C107.241 12.5611 107.038 12.6108 106.858 12.7102C106.68 12.8073 106.541 12.9482 106.439 13.1328C106.339 13.3175 106.29 13.5412 106.29 13.804ZM111.137 17V11.5455H112.423V17H111.137ZM111.783 10.7713C111.58 10.7713 111.405 10.7038 111.258 10.5689C111.111 10.4316 111.038 10.267 111.038 10.0753C111.038 9.88116 111.111 9.71662 111.258 9.58168C111.405 9.44437 111.58 9.37571 111.783 9.37571C111.989 9.37571 112.165 9.44437 112.309 9.58168C112.456 9.71662 112.529 9.88116 112.529 10.0753C112.529 10.267 112.456 10.4316 112.309 10.5689C112.165 10.7038 111.989 10.7713 111.783 10.7713ZM113.744 17V11.5455H114.991V12.4545H115.048C115.147 12.1397 115.318 11.897 115.559 11.7266C115.803 11.5537 116.081 11.4673 116.394 11.4673C116.465 11.4673 116.544 11.4709 116.632 11.478C116.722 11.4827 116.796 11.491 116.855 11.5028V12.6854C116.801 12.6664 116.714 12.6499 116.596 12.6357C116.48 12.6191 116.368 12.6108 116.259 12.6108C116.024 12.6108 115.814 12.6617 115.627 12.7635C115.442 12.8629 115.296 13.0014 115.19 13.179C115.083 13.3565 115.03 13.5613 115.03 13.7933V17H113.744ZM117.709 17V11.5455H118.938V12.4723H119.002C119.116 12.1598 119.304 11.916 119.567 11.7408C119.829 11.5632 120.143 11.4744 120.508 11.4744C120.877 11.4744 121.188 11.5644 121.442 11.7443C121.697 11.9219 121.877 12.1645 121.981 12.4723H122.038C122.159 12.1693 122.363 11.9278 122.649 11.7479C122.938 11.5656 123.28 11.4744 123.675 11.4744C124.177 11.4744 124.587 11.633 124.904 11.9503C125.221 12.2675 125.38 12.7304 125.38 13.3388V17H124.091V13.5376C124.091 13.1991 124.001 12.9517 123.821 12.7955C123.641 12.6368 123.421 12.5575 123.16 12.5575C122.85 12.5575 122.608 12.6546 122.432 12.8487C122.26 13.0405 122.173 13.2902 122.173 13.598V17H120.912V13.4844C120.912 13.2027 120.827 12.9777 120.657 12.8097C120.489 12.6416 120.269 12.5575 119.996 12.5575C119.812 12.5575 119.644 12.6049 119.492 12.6996C119.34 12.7919 119.22 12.9233 119.13 13.0938C119.04 13.2618 118.995 13.4583 118.995 13.6832V17H117.709ZM130.45 13.804V17H129.164V9.72727H130.422V12.4723H130.485C130.613 12.1645 130.811 11.9219 131.078 11.7443C131.348 11.5644 131.692 11.4744 132.108 11.4744C132.487 11.4744 132.817 11.5537 133.099 11.7124C133.381 11.871 133.599 12.103 133.752 12.4084C133.909 12.7138 133.987 13.0866 133.987 13.527V17H132.701V13.7259C132.701 13.3589 132.607 13.0736 132.417 12.87C132.23 12.6641 131.967 12.5611 131.629 12.5611C131.402 12.5611 131.198 12.6108 131.018 12.7102C130.841 12.8073 130.701 12.9482 130.599 13.1328C130.5 13.3175 130.45 13.5412 130.45 13.804ZM135.297 17V11.5455H136.583V17H135.297ZM135.944 10.7713C135.74 10.7713 135.565 10.7038 135.418 10.5689C135.271 10.4316 135.198 10.267 135.198 10.0753C135.198 9.88116 135.271 9.71662 135.418 9.58168C135.565 9.44437 135.74 9.37571 135.944 9.37571C136.15 9.37571 136.325 9.44437 136.469 9.58168C136.616 9.71662 136.689 9.88116 136.689 10.0753C136.689 10.267 136.616 10.4316 136.469 10.5689C136.325 10.7038 136.15 10.7713 135.944 10.7713ZM139.19 13.804V17H137.905V11.5455H139.133V12.4723H139.197C139.323 12.1669 139.523 11.9242 139.797 11.7443C140.074 11.5644 140.416 11.4744 140.824 11.4744C141.2 11.4744 141.528 11.5549 141.807 11.7159C142.089 11.8769 142.307 12.1101 142.461 12.4155C142.617 12.7209 142.694 13.0914 142.692 13.527V17H141.406V13.7259C141.406 13.3613 141.311 13.076 141.122 12.87C140.935 12.6641 140.676 12.5611 140.344 12.5611C140.119 12.5611 139.919 12.6108 139.744 12.7102C139.571 12.8073 139.435 12.9482 139.336 13.1328C139.239 13.3175 139.19 13.5412 139.19 13.804ZM143.927 17V16.1832L146.74 12.657V12.6108H144.02V11.5455H148.313V12.4226L145.635 15.8885V15.9347H148.405V17H143.927ZM153.09 14.706V11.5455H154.376V17H153.129V16.0305H153.072C152.949 16.3359 152.747 16.5857 152.465 16.7798C152.186 16.974 151.841 17.071 151.432 17.071C151.074 17.071 150.758 16.9917 150.484 16.8331C150.211 16.6721 149.998 16.4389 149.844 16.1335C149.691 15.8258 149.614 15.4541 149.614 15.0185V11.5455H150.899V14.8196C150.899 15.1652 150.994 15.4399 151.183 15.6435C151.373 15.8471 151.621 15.9489 151.929 15.9489C152.118 15.9489 152.302 15.9027 152.479 15.8104C152.657 15.718 152.803 15.5807 152.916 15.3984C153.032 15.2138 153.09 14.983 153.09 14.706Z" fill="black"/>
</g>
<defs>
<clipPath id="clip0_22_2">
<rect width="159" height="27" fill="white"/>
</clipPath>
</defs>
</svg>
