<svg width="161" height="30" viewBox="0 0 161 30" fill="none" xmlns="http://www.w3.org/2000/svg">
<path d="M151.984 19.2512C151.983 19.7444 151.885 20.2325 151.696 20.6878C151.506 21.1431 151.229 21.5566 150.88 21.9047C150.532 22.2528 150.118 22.5287 149.662 22.7166C149.207 22.9046 148.719 23.0009 148.226 23L138.744 22.9834C137.749 22.9817 136.796 22.5844 136.094 21.8789C135.392 21.1734 134.998 20.2175 135 19.2216L135.016 9.74879C135.017 9.25563 135.115 8.76747 135.304 8.31218C135.494 7.8569 135.771 7.44339 136.12 7.09529C136.468 6.74718 136.882 6.47129 137.338 6.28336C137.793 6.09543 138.281 5.99915 138.774 6.00001L148.256 6.01658C149.251 6.01832 150.204 6.41564 150.906 7.12113C151.608 7.82661 152.002 8.78247 152 9.77844L151.984 19.2512ZM150.759 9.95072C150.759 9.59929 150.691 9.25117 150.557 8.92625C150.423 8.60133 150.227 8.30597 149.979 8.05703C149.731 7.80809 149.437 7.61045 149.113 7.47539C148.789 7.34034 148.442 7.27051 148.091 7.26989L138.924 7.25387C138.573 7.25325 138.225 7.32186 137.901 7.45578C137.576 7.5897 137.281 7.78631 137.032 8.03438C136.784 8.28244 136.586 8.57712 136.452 8.90156C136.317 9.22601 136.247 9.57389 136.246 9.92532L136.231 18.9839C136.23 19.3353 136.298 19.6834 136.432 20.0083C136.566 20.3333 136.762 20.6286 137.01 20.8776C137.258 21.1265 137.552 21.3241 137.876 21.4592C138.2 21.5943 138.548 21.6641 138.899 21.6647L148.065 21.6807C148.416 21.6813 148.764 21.6127 149.089 21.4788C149.413 21.3449 149.708 21.1483 149.957 20.9002C150.205 20.6522 150.403 20.3575 150.538 20.033C150.672 19.7086 150.742 19.3607 150.743 19.0093L150.759 9.95072Z" fill="black"/>
<path d="M147.189 14.0189H140.132C139.778 14.0189 139.491 14.3061 139.491 14.6604V14.6604C139.491 15.0147 139.778 15.3019 140.132 15.3019H147.189C147.543 15.3019 147.831 15.0147 147.831 14.6604C147.831 14.3061 147.543 14.0189 147.189 14.0189Z" fill="black"/>
<path d="M144.302 18.1887V11.1321C144.302 10.7778 144.015 10.4906 143.66 10.4906H143.66C143.306 10.4906 143.019 10.7778 143.019 11.1321V18.1887C143.019 18.543 143.306 18.8302 143.66 18.8302C144.015 18.8302 144.302 18.543 144.302 18.1887Z" fill="black"/>
<path d="M3.64063 19V18.0977L7.74219 12.2148H3.61719V11H9.53906V11.9023L5.44141 17.7852H9.5625V19H3.64063ZM14.7266 16.4766V13H16.1406V19H14.7695V17.9336H14.707C14.5716 18.2695 14.349 18.5443 14.0391 18.7578C13.7318 18.9714 13.3529 19.0781 12.9023 19.0781C12.5091 19.0781 12.1615 18.9909 11.8594 18.8164C11.5599 18.6393 11.3255 18.3828 11.1563 18.0469C10.987 17.7083 10.9023 17.2995 10.9023 16.8203V13H12.3164V16.6016C12.3164 16.9818 12.4206 17.2839 12.6289 17.5078C12.8372 17.7318 13.1107 17.8437 13.4492 17.8437C13.6576 17.8437 13.8594 17.793 14.0547 17.6914C14.25 17.5898 14.4102 17.4388 14.5352 17.2383C14.6628 17.0352 14.7266 16.7812 14.7266 16.4766ZM17.5947 19V13H18.9463V14.0195H19.0166C19.1416 13.6758 19.3486 13.4076 19.6377 13.2148C19.9268 13.0195 20.2718 12.9219 20.6729 12.9219C21.0791 12.9219 21.4215 13.0208 21.7002 13.2187C21.9814 13.4141 22.1794 13.681 22.2939 14.0195H22.3564C22.4893 13.6862 22.7132 13.4206 23.0283 13.2227C23.346 13.0221 23.7223 12.9219 24.1572 12.9219C24.7093 12.9219 25.1598 13.0964 25.5088 13.4453C25.8577 13.7943 26.0322 14.3034 26.0322 14.9727V19H24.6143V15.1914C24.6143 14.819 24.5153 14.5469 24.3174 14.375C24.1195 14.2005 23.8773 14.1133 23.5908 14.1133C23.2497 14.1133 22.9827 14.2201 22.79 14.4336C22.5999 14.6445 22.5049 14.9193 22.5049 15.2578V19H21.1182V15.1328C21.1182 14.8229 21.0244 14.5755 20.8369 14.3906C20.652 14.2057 20.4098 14.1133 20.1104 14.1133C19.9072 14.1133 19.7223 14.1654 19.5557 14.2695C19.389 14.3711 19.2562 14.5156 19.1572 14.7031C19.0583 14.888 19.0088 15.1042 19.0088 15.3516V19H17.5947ZM30.2578 19V11H31.707V14.3867H35.4141V11H36.8672V19H35.4141V15.6016H31.707V19H30.2578ZM40.998 19.1172C40.4121 19.1172 39.9043 18.9883 39.4746 18.7305C39.0449 18.4727 38.7116 18.112 38.4746 17.6484C38.2402 17.1849 38.123 16.6432 38.123 16.0234C38.123 15.4036 38.2402 14.8607 38.4746 14.3945C38.7116 13.9284 39.0449 13.5664 39.4746 13.3086C39.9043 13.0508 40.4121 12.9219 40.998 12.9219C41.584 12.9219 42.0918 13.0508 42.5215 13.3086C42.9512 13.5664 43.2832 13.9284 43.5176 14.3945C43.7546 14.8607 43.873 15.4036 43.873 16.0234C43.873 16.6432 43.7546 17.1849 43.5176 17.6484C43.2832 18.112 42.9512 18.4727 42.5215 18.7305C42.0918 18.9883 41.584 19.1172 40.998 19.1172ZM41.0059 17.9844C41.3236 17.9844 41.5892 17.8971 41.8027 17.7227C42.0163 17.5456 42.1751 17.3086 42.2793 17.0117C42.3861 16.7148 42.4395 16.3841 42.4395 16.0195C42.4395 15.6523 42.3861 15.3203 42.2793 15.0234C42.1751 14.724 42.0163 14.4857 41.8027 14.3086C41.5892 14.1315 41.3236 14.043 41.0059 14.043C40.6803 14.043 40.4095 14.1315 40.1934 14.3086C39.9798 14.4857 39.8197 14.724 39.7129 15.0234C39.6087 15.3203 39.5566 15.6523 39.5566 16.0195C39.5566 16.3841 39.6087 16.7148 39.7129 17.0117C39.8197 17.3086 39.9798 17.5456 40.1934 17.7227C40.4095 17.8971 40.6803 17.9844 41.0059 17.9844ZM45.0732 19V13H46.4248V14.0195H46.4951C46.6201 13.6758 46.8271 13.4076 47.1162 13.2148C47.4053 13.0195 47.7503 12.9219 48.1514 12.9219C48.5576 12.9219 48.9001 13.0208 49.1787 13.2187C49.46 13.4141 49.6579 13.681 49.7725 14.0195H49.835C49.9678 13.6862 50.1917 13.4206 50.5068 13.2227C50.8245 13.0221 51.2008 12.9219 51.6357 12.9219C52.1878 12.9219 52.6383 13.0964 52.9873 13.4453C53.3363 13.7943 53.5107 14.3034 53.5107 14.9727V19H52.0928V15.1914C52.0928 14.819 51.9938 14.5469 51.7959 14.375C51.598 14.2005 51.3558 14.1133 51.0693 14.1133C50.7282 14.1133 50.4613 14.2201 50.2686 14.4336C50.0785 14.6445 49.9834 14.9193 49.9834 15.2578V19H48.5967V15.1328C48.5967 14.8229 48.5029 14.5755 48.3154 14.3906C48.1305 14.2057 47.8883 14.1133 47.5889 14.1133C47.3857 14.1133 47.2008 14.1654 47.0342 14.2695C46.8675 14.3711 46.7347 14.5156 46.6357 14.7031C46.5368 14.888 46.4873 15.1042 46.4873 15.3516V19H45.0732ZM57.6016 19.1172C57 19.1172 56.4805 18.9922 56.043 18.7422C55.6081 18.4896 55.2734 18.1328 55.0391 17.6719C54.8047 17.2083 54.6875 16.6628 54.6875 16.0352C54.6875 15.418 54.8047 14.8763 55.0391 14.4102C55.276 13.9414 55.6068 13.5768 56.0313 13.3164C56.4557 13.0534 56.9544 12.9219 57.5273 12.9219C57.8971 12.9219 58.2461 12.9818 58.5742 13.1016C58.9049 13.2187 59.1966 13.401 59.4492 13.6484C59.7044 13.8958 59.9049 14.2109 60.0508 14.5937C60.1966 14.974 60.2695 15.4271 60.2695 15.9531V16.3867H55.3516V15.4336H58.9141C58.9115 15.1628 58.8529 14.9219 58.7383 14.7109C58.6237 14.4974 58.4635 14.3294 58.2578 14.207C58.0547 14.0846 57.8177 14.0234 57.5469 14.0234C57.2578 14.0234 57.0039 14.0937 56.7852 14.2344C56.5664 14.3724 56.3958 14.5547 56.2734 14.7812C56.1536 15.0052 56.0924 15.2513 56.0898 15.5195V16.3516C56.0898 16.7005 56.1536 17 56.2812 17.25C56.4089 17.4974 56.5872 17.6875 56.8164 17.8203C57.0456 17.9505 57.3138 18.0156 57.6211 18.0156C57.8268 18.0156 58.013 17.987 58.1797 17.9297C58.3464 17.8698 58.4909 17.7826 58.6133 17.668C58.7357 17.5534 58.8281 17.4115 58.8906 17.2422L60.2109 17.3906C60.1276 17.7396 59.9688 18.0443 59.7344 18.3047C59.5026 18.5625 59.2057 18.763 58.8438 18.9062C58.4818 19.0469 58.0677 19.1172 57.6016 19.1172ZM65.1025 15.0859V16.25H61.501V15.0859H65.1025ZM66.6523 19V11H69.7148C70.293 11 70.7734 11.0911 71.1563 11.2734C71.5417 11.4531 71.8294 11.6992 72.0195 12.0117C72.2122 12.3242 72.3086 12.6784 72.3086 13.0742C72.3086 13.3997 72.2461 13.6784 72.1211 13.9102C71.9961 14.1393 71.8281 14.3255 71.6172 14.4687C71.4062 14.612 71.1706 14.7148 70.9102 14.7773V14.8555C71.194 14.8711 71.4661 14.9583 71.7266 15.1172C71.9896 15.2734 72.2044 15.4948 72.3711 15.7812C72.5378 16.0677 72.6211 16.4141 72.6211 16.8203C72.6211 17.2344 72.5208 17.6068 72.3203 17.9375C72.1198 18.2656 71.8177 18.5247 71.4141 18.7148C71.0104 18.9049 70.5026 19 69.8906 19H66.6523ZM68.1016 17.7891H69.6602C70.1862 17.7891 70.5651 17.6888 70.7969 17.4883C71.0313 17.2852 71.1484 17.0247 71.1484 16.707C71.1484 16.4701 71.0898 16.2565 70.9727 16.0664C70.8555 15.8737 70.6888 15.7227 70.4727 15.6133C70.2565 15.5013 69.9987 15.4453 69.6992 15.4453H68.1016V17.7891ZM68.1016 14.4023H69.5352C69.7852 14.4023 70.0104 14.3568 70.2109 14.2656C70.4115 14.1719 70.569 14.0404 70.6836 13.8711C70.8008 13.6992 70.8594 13.4961 70.8594 13.2617C70.8594 12.9518 70.75 12.6966 70.5313 12.4961C70.3151 12.2956 69.9935 12.1953 69.5664 12.1953H68.1016V14.4023ZM73.8193 19V13H75.2334V19H73.8193ZM74.5303 12.1484C74.3063 12.1484 74.1136 12.0742 73.9521 11.9258C73.7907 11.7747 73.71 11.5937 73.71 11.3828C73.71 11.1693 73.7907 10.9883 73.9521 10.8398C74.1136 10.6888 74.3063 10.6133 74.5303 10.6133C74.7568 10.6133 74.9495 10.6888 75.1084 10.8398C75.2699 10.9883 75.3506 11.1693 75.3506 11.3828C75.3506 11.5937 75.2699 11.7747 75.1084 11.9258C74.9495 12.0742 74.7568 12.1484 74.5303 12.1484ZM78.1016 11V19H76.6875V11H78.1016ZM81.7822 19.1055C81.3109 19.1055 80.889 18.9844 80.5166 18.7422C80.1442 18.5 79.8499 18.1484 79.6338 17.6875C79.4176 17.2266 79.3096 16.6667 79.3096 16.0078C79.3096 15.3411 79.4189 14.7786 79.6377 14.3203C79.859 13.8594 80.1572 13.5117 80.5322 13.2773C80.9072 13.0404 81.3252 12.9219 81.7861 12.9219C82.1377 12.9219 82.4268 12.9818 82.6533 13.1016C82.8799 13.2187 83.0596 13.3607 83.1924 13.5273C83.3252 13.6914 83.4281 13.8464 83.501 13.9922H83.5596V11H84.9775V19H83.5869V18.0547H83.501C83.4281 18.2005 83.3226 18.3555 83.1846 18.5195C83.0465 18.681 82.8643 18.819 82.6377 18.9336C82.4111 19.0482 82.126 19.1055 81.7822 19.1055ZM82.1768 17.9453C82.4762 17.9453 82.7314 17.8646 82.9424 17.7031C83.1533 17.5391 83.3135 17.3112 83.4229 17.0195C83.5322 16.7279 83.5869 16.388 83.5869 16C83.5869 15.612 83.5322 15.2747 83.4229 14.9883C83.3161 14.7018 83.1572 14.4792 82.9463 14.3203C82.738 14.1615 82.4814 14.082 82.1768 14.082C81.8617 14.082 81.5986 14.1641 81.3877 14.3281C81.1768 14.4922 81.0179 14.7187 80.9111 15.0078C80.8044 15.2969 80.751 15.6276 80.751 16C80.751 16.375 80.8044 16.7096 80.9111 17.0039C81.0205 17.2956 81.1807 17.526 81.3916 17.6953C81.6051 17.862 81.8669 17.9453 82.1768 17.9453ZM91.2266 14.5859L89.9375 14.7266C89.901 14.5964 89.8372 14.474 89.7461 14.3594C89.6576 14.2448 89.5378 14.1523 89.3867 14.082C89.2357 14.0117 89.0508 13.9766 88.832 13.9766C88.5378 13.9766 88.2904 14.0404 88.0898 14.168C87.8919 14.2956 87.7943 14.4609 87.7969 14.6641C87.7943 14.8385 87.8581 14.9805 87.9883 15.0898C88.1211 15.1992 88.3398 15.2891 88.6445 15.3594L89.668 15.5781C90.2357 15.7005 90.6576 15.8945 90.9336 16.1602C91.2122 16.4258 91.3529 16.7734 91.3555 17.2031C91.3529 17.5807 91.2422 17.9141 91.0234 18.2031C90.8073 18.4896 90.5065 18.7135 90.1211 18.875C89.7357 19.0365 89.293 19.1172 88.793 19.1172C88.0586 19.1172 87.4674 18.9635 87.0195 18.6562C86.5716 18.3464 86.3047 17.9154 86.2188 17.3633L87.5977 17.2305C87.6602 17.5013 87.793 17.7057 87.9961 17.8437C88.1992 17.9818 88.4635 18.0508 88.7891 18.0508C89.125 18.0508 89.3945 17.9818 89.5977 17.8437C89.8034 17.7057 89.9063 17.5352 89.9063 17.332C89.9063 17.1602 89.8398 17.0182 89.707 16.9062C89.5768 16.7943 89.3737 16.7083 89.0977 16.6484L88.0742 16.4336C87.4987 16.3138 87.0729 16.112 86.7969 15.8281C86.5208 15.5417 86.3841 15.1797 86.3867 14.7422C86.3841 14.3724 86.4844 14.0521 86.6875 13.7812C86.8932 13.5078 87.1784 13.2969 87.543 13.1484C87.9102 12.9974 88.3333 12.9219 88.8125 12.9219C89.5156 12.9219 90.069 13.0716 90.4727 13.3711C90.8789 13.6706 91.1302 14.0755 91.2266 14.5859ZM95.1387 19.1172C94.5397 19.1172 94.0254 18.9857 93.5957 18.7227C93.1686 18.4596 92.8392 18.0964 92.6074 17.6328C92.3783 17.1667 92.2637 16.6302 92.2637 16.0234C92.2637 15.4141 92.3809 14.8763 92.6152 14.4102C92.8496 13.9414 93.1803 13.5768 93.6074 13.3164C94.0371 13.0534 94.5449 12.9219 95.1309 12.9219C95.6178 12.9219 96.0488 13.0117 96.4238 13.1914C96.8014 13.3685 97.1022 13.6198 97.3262 13.9453C97.5501 14.2682 97.6777 14.6458 97.709 15.0781H96.3574C96.3027 14.7891 96.1725 14.5482 95.9668 14.3555C95.7637 14.1602 95.4915 14.0625 95.1504 14.0625C94.8613 14.0625 94.6074 14.1406 94.3887 14.2969C94.1699 14.4505 93.9993 14.6719 93.877 14.9609C93.7572 15.25 93.6973 15.5964 93.6973 16C93.6973 16.4089 93.7572 16.7604 93.877 17.0547C93.9967 17.3464 94.1647 17.5716 94.3809 17.7305C94.5996 17.8867 94.8561 17.9648 95.1504 17.9648C95.3587 17.9648 95.5449 17.9258 95.709 17.8477C95.8757 17.7669 96.015 17.651 96.127 17.5C96.2389 17.349 96.3158 17.1654 96.3574 16.9492H97.709C97.6751 17.3737 97.5501 17.75 97.334 18.0781C97.1178 18.4036 96.8236 18.6589 96.4512 18.8437C96.0788 19.026 95.6413 19.1172 95.1387 19.1172ZM100.284 15.4844V19H98.8701V11H100.253V14.0195H100.323C100.464 13.681 100.681 13.4141 100.976 13.2187C101.272 13.0208 101.65 12.9219 102.108 12.9219C102.525 12.9219 102.888 13.0091 103.198 13.1836C103.508 13.3581 103.748 13.6133 103.917 13.9492C104.089 14.2852 104.175 14.6953 104.175 15.1797V19H102.761V15.3984C102.761 14.9948 102.657 14.681 102.448 14.457C102.243 14.2305 101.953 14.1172 101.581 14.1172C101.331 14.1172 101.107 14.1719 100.909 14.2812C100.714 14.388 100.56 14.543 100.448 14.7461C100.339 14.9492 100.284 15.1953 100.284 15.4844ZM105.616 19V13H107.03V19H105.616ZM106.327 12.1484C106.103 12.1484 105.91 12.0742 105.749 11.9258C105.588 11.7747 105.507 11.5937 105.507 11.3828C105.507 11.1693 105.588 10.9883 105.749 10.8398C105.91 10.6888 106.103 10.6133 106.327 10.6133C106.554 10.6133 106.746 10.6888 106.905 10.8398C107.067 10.9883 107.147 11.1693 107.147 11.3828C107.147 11.5937 107.067 11.7747 106.905 11.9258C106.746 12.0742 106.554 12.1484 106.327 12.1484ZM108.484 19V13H109.855V14H109.918C110.027 13.6536 110.215 13.3867 110.48 13.1992C110.749 13.0091 111.055 12.9141 111.398 12.9141C111.477 12.9141 111.564 12.918 111.66 12.9258C111.759 12.931 111.841 12.9401 111.906 12.9531V14.2539C111.846 14.2331 111.751 14.2148 111.621 14.1992C111.493 14.181 111.37 14.1719 111.25 14.1719C110.992 14.1719 110.76 14.2279 110.555 14.3398C110.352 14.4492 110.191 14.6016 110.074 14.7969C109.957 14.9922 109.898 15.2174 109.898 15.4727V19H108.484ZM112.846 19V13H114.197V14.0195H114.268C114.393 13.6758 114.6 13.4076 114.889 13.2148C115.178 13.0195 115.523 12.9219 115.924 12.9219C116.33 12.9219 116.673 13.0208 116.951 13.2187C117.232 13.4141 117.43 13.681 117.545 14.0195H117.607C117.74 13.6862 117.964 13.4206 118.279 13.2227C118.597 13.0221 118.973 12.9219 119.408 12.9219C119.96 12.9219 120.411 13.0964 120.76 13.4453C121.109 13.7943 121.283 14.3034 121.283 14.9727V19H119.865V15.1914C119.865 14.819 119.766 14.5469 119.568 14.375C119.37 14.2005 119.128 14.1133 118.842 14.1133C118.501 14.1133 118.234 14.2201 118.041 14.4336C117.851 14.6445 117.756 14.9193 117.756 15.2578V19H116.369V15.1328C116.369 14.8229 116.275 14.5755 116.088 14.3906C115.903 14.2057 115.661 14.1133 115.361 14.1133C115.158 14.1133 114.973 14.1654 114.807 14.2695C114.64 14.3711 114.507 14.5156 114.408 14.7031C114.309 14.888 114.26 15.1042 114.26 15.3516V19H112.846Z" fill="black"/>
</svg>
